 <svg  version="1.0" xmlns="http://www.w3.org/2000/svg"  width="300.000000pt" height="154.000000pt" viewBox="0 0 300.000000 154.000000"  preserveAspectRatio="xMidYMid meet">  <g transform="translate(0.000000,154.000000) scale(0.100000,-0.100000)" fill="#c01c28" stroke="none"> <path d="M730 1364 c0 -15 68 -84 82 -84 9 0 9 3 -2 10 -13 9 -13 10 0 11 10 0 8 3 -5 8 -17 7 -15 9 12 13 18 2 30 1 27 -4 -3 -5 6 -6 20 -2 14 3 26 2 26 -3 0 -5 9 -9 21 -10 23 -2 49 -20 49 -35 0 -5 -6 -6 -12 -2 -8 4 -10 3 -5 -2 5 -5 14 -9 20 -9 5 0 12 -6 15 -14 3 -8 0 -11 -6 -7 -6 3 -13 -3 -17 -14 -4 -11 -11 -18 -16 -15 -5 4 -9 -1 -9 -9 0 -25 -37 -39 -60 -23 -11 8 -17 16 -15 19 3 3 -8 8 -26 12 -27 5 -31 9 -27 31 3 14 1 25 -4 25 -6 0 -23 9 -40 21 -16 12 -31 19 -33 17 -3 -2 5 -23 18 -45 24 -45 58 -76 130 -117 26 -15 47 -33 47 -41 0 -8 5 -15 11 -15 7 0 9 13 4 38 -5 30 -2 44 16 66 14 18 28 26 40 23 25 -7 24 16 -2 62 -27 49 -45 59 -137 76 -42 8 -87 17 -99 21 -13 3 -23 2 -23 -2z"/> <path d="M685 1082 c-22 -11 -61 -37 -88 -59 -56 -47 -157 -85 -227 -86 -28 0 -50 -4 -50 -8 0 -15 97 -44 146 -43 63 0 124 36 124 72 0 12 5 22 11 22 5 0 7 5 4 10 -3 6 5 14 19 20 14 5 26 17 26 25 0 9 4 14 10 10 5 -3 18 -1 30 5 11 5 29 15 41 21 24 12 41 2 19 -11 -13 -9 -13 -10 0 -10 13 -1 13 -2 0 -13 -26 -22 -66 -71 -50 -62 9 5 6 -2 -6 -16 -22 -25 -54 -89 -54 -108 0 -6 -4 -11 -9 -11 -7 0 -12 -8 -25 -50 -6 -20 -40 -59 -47 -54 -5 3 -9 -2 -9 -10 0 -18 -8 -20 -30 -6 -12 7 -10 13 10 33 14 13 32 34 40 46 8 13 21 29 28 37 8 9 9 15 2 19 -8 5 -6 14 4 29 16 26 7 56 -11 34 -6 -7 -23 -37 -37 -66 -58 -115 -162 -176 -354 -206 l-77 -13 59 -12 c85 -19 239 -10 297 16 89 40 143 102 188 218 51 129 98 178 183 193 l43 8 -29 19 c-41 27 -130 31 -181 7z m-162 -371 c19 -2 3 -19 -35 -39 -25 -12 -44 -17 -46 -11 -3 6 -9 6 -18 -2 -12 -10 -13 -9 -8 4 3 9 19 20 36 26 16 6 27 14 24 19 -3 5 5 7 17 6 12 -1 25 -3 30 -3z"/> <path d="M1085 1070 c17 -18 18 -36 16 -155 l-2 -135 40 0 41 0 0 60 0 60 43 0 c85 0 135 62 108 133 -16 41 -64 57 -172 57 -92 0 -92 0 -74 -20z m167 -53 c21 -33 -4 -67 -51 -67 -18 0 -21 6 -21 46 l0 47 32 -7 c18 -3 36 -12 40 -19z m-83 -81 c9 -11 8 -15 -5 -20 -23 -9 -24 -8 -24 14 0 23 13 26 29 6z"/> <path d="M1364 1071 c14 -16 17 -39 15 -152 l-1 -134 35 -3 36 -3 3 83 c3 82 3 83 30 86 34 4 43 -24 34 -109 l-6 -59 41 0 41 0 -4 96 c-2 81 -6 98 -22 110 -27 19 -75 18 -98 -3 -17 -15 -18 -14 -18 45 l0 62 -52 0 c-49 0 -51 -1 -34 -19z"/> <path d="M2443 1074 c-16 -41 46 -73 67 -34 9 16 8 25 -1 36 -16 19 -58 18 -66 -2z"/> <path d="M856 1000 c-58 -23 -91 -52 -117 -102 -24 -48 -34 -133 -21 -182 12 -41 13 -37 -52 -160 -35 -67 -34 -123 4 -203 16 -35 34 -63 39 -63 7 0 7 9 1 26 -15 38 -11 134 6 179 24 60 30 100 14 90 -10 -6 -11 -4 -6 11 5 10 9 25 9 32 0 6 4 12 8 12 4 0 6 27 4 60 -2 41 0 60 8 60 8 0 7 4 -2 9 -10 7 -12 19 -6 47 5 22 9 44 11 51 3 15 44 75 58 85 6 4 14 4 18 2 4 -3 8 0 8 6 0 6 4 9 9 6 5 -4 12 0 14 6 4 9 6 10 6 1 1 -6 -3 -14 -9 -18 -5 -3 -6 -13 -3 -22 5 -12 3 -14 -7 -8 -9 5 -11 4 -6 -3 4 -7 1 -12 -9 -12 -9 0 -14 -4 -10 -9 3 -5 -2 -16 -10 -25 -8 -8 -14 -19 -13 -23 1 -4 -2 -27 -6 -51 -5 -25 -4 -48 2 -55 5 -7 10 -28 10 -47 0 -56 1 -62 12 -55 5 3 10 -4 10 -17 -1 -33 5 -61 14 -76 4 -7 5 -30 2 -50 -4 -26 -3 -31 3 -17 8 17 9 15 9 -11 -1 -28 -3 -30 -24 -20 -16 8 -24 23 -29 52 -3 25 -16 50 -30 64 -23 22 -36 17 -16 -6 15 -16 34 -181 28 -235 -4 -29 -17 -75 -30 -101 -13 -26 -20 -48 -16 -48 13 0 84 94 108 142 44 92 47 204 6 301 -7 18 -19 63 -25 100 -10 55 -9 75 4 121 9 30 28 69 43 86 19 24 23 34 14 40 -10 5 -9 9 3 13 9 4 16 2 16 -4 0 -6 5 -7 10 -4 6 3 10 -1 10 -10 0 -9 -4 -14 -9 -10 -18 11 -21 -13 -5 -51 16 -37 15 -92 -1 -154 l-7 -25 21 25 c53 64 64 166 26 239 -18 36 -32 37 -99 11z"/> <path d="M1691 989 c-41 -18 -61 -53 -61 -105 0 -28 8 -44 34 -70 30 -30 40 -34 84 -34 40 0 57 6 81 26 32 27 48 76 37 117 -16 67 -102 99 -175 66z m91 -56 c10 -9 18 -26 18 -37 0 -30 -27 -66 -50 -66 -21 0 -50 35 -50 60 0 23 29 60 47 60 9 0 25 -7 35 -17z"/> <path d="M1993 1002 c-38 -4 -79 -43 -88 -83 -17 -78 33 -139 115 -139 58 0 103 18 95 38 -3 7 -5 18 -5 23 0 6 -8 6 -19 -1 -27 -14 -84 -13 -99 2 -29 29 -13 38 64 38 65 0 75 2 70 16 -3 9 -6 24 -6 34 0 45 -60 79 -127 72z m57 -57 c17 -21 5 -33 -35 -33 -36 0 -40 4 -29 32 8 20 48 21 64 1z"/> <path d="M2295 1003 c-11 -3 -28 -12 -37 -21 -16 -14 -18 -14 -18 1 0 13 -10 17 -45 17 -49 0 -53 -4 -30 -26 11 -12 15 -39 15 -105 l0 -89 35 0 34 0 3 83 c3 81 3 82 31 85 l27 3 0 -85 0 -86 40 0 40 0 0 75 c0 74 -19 145 -39 145 -5 0 -15 2 -23 4 -7 2 -22 1 -33 -1z"/> <path d="M2420 994 c0 -3 7 -12 16 -21 12 -12 15 -35 13 -102 l-2 -86 36 -3 37 -3 0 110 0 111 -50 0 c-27 0 -50 -3 -50 -6z"/> <path d="M2550 994 c0 -3 13 -16 28 -29 15 -13 34 -34 41 -48 13 -24 11 -29 -21 -69 -55 -68 -55 -68 -4 -68 40 0 46 3 58 30 7 17 18 30 24 30 6 0 17 -13 24 -30 11 -27 17 -30 56 -30 24 0 44 3 44 7 0 3 -18 29 -39 58 l-39 51 19 25 c11 13 29 36 40 52 l20 27 -45 0 c-40 0 -46 -3 -52 -25 -3 -14 -12 -25 -18 -25 -7 0 -18 11 -24 25 -10 22 -18 25 -62 25 -27 0 -50 -3 -50 -6z m141 -69 c8 5 11 5 7 0 -4 -4 -1 -23 7 -41 14 -33 13 -34 -6 -23 -12 6 -30 9 -40 6 -16 -4 -17 -2 -8 15 6 11 8 32 4 46 -6 25 -5 26 8 8 9 -12 19 -16 28 -11z"/> </g> </svg> 